<?xml version="1.0" encoding="UTF-8"?><svg xmlns="http://www.w3.org/2000/svg" xmlns:xlink="http://www.w3.org/1999/xlink" contentScriptType="text/ecmascript" width="375" zoomAndPan="magnify" contentStyleType="text/css" viewBox="0 0 375 374.999991" height="374.999991" preserveAspectRatio="xMidYMid meet" version="1.0"><defs><filter x="0%" y="0%" width="100%" xmlns:xlink="http://www.w3.org/1999/xlink" xlink:type="simple" xlink:actuate="onLoad" height="100%" id="filter-remove-color" xlink:show="other"><feColorMatrix values="0 0 0 0 1 0 0 0 0 1 0 0 0 0 1 0 0 0 1 0" color-interpolation-filters="sRGB"/></filter><mask id="mask-0"><g filter="url(#filter-remove-color)"><rect x="-37.5" width="450" fill="rgb(0%, 0%, 0%)" y="-37.499999" height="449.999989" fill-opacity="0.6"/></g></mask><clipPath id="clip-0"><path d="M 10.273438 2 L 300.523438 2 L 300.523438 373 L 10.273438 373 Z M 10.273438 2 " clip-rule="nonzero"/></clipPath><clipPath id="clip-1"><rect x="0" width="311" y="0" height="375"/></clipPath></defs><g mask="url(#mask-0)"><g transform="matrix(1, 0, 0, 1, 32, 0)"><g id="source-5" clip-path="url(#clip-1)"><g clip-path="url(#clip-0)"><path fill="rgb(85.099792%, 85.099792%, 85.099792%)" d="M 174.667969 372.007812 C 209.402344 372.007812 237.476562 343.796875 237.59375 309.15625 C 272.210938 309.15625 300.402344 280.941406 300.402344 246.304688 L 300.402344 65.964844 C 300.402344 31.203125 272.09375 2.992188 237.476562 2.992188 L 136.128906 2.992188 C 101.390625 2.992188 73.320312 31.203125 73.199219 65.84375 C 38.582031 65.84375 10.390625 94.054688 10.390625 128.695312 L 10.390625 309.035156 C 10.390625 343.796875 38.703125 372.007812 73.320312 372.007812 Z M 136.128906 38.703125 L 237.476562 38.703125 C 252.464844 38.703125 264.71875 50.964844 264.71875 65.964844 L 264.71875 246.304688 C 264.71875 261.183594 252.582031 273.445312 237.59375 273.445312 L 237.59375 128.695312 C 237.59375 94.054688 209.402344 65.726562 174.667969 65.726562 L 108.886719 65.726562 C 109.003906 50.84375 121.140625 38.703125 136.128906 38.703125 Z M 136.128906 38.703125 " fill-opacity="1" fill-rule="nonzero"/></g></g></g></g></svg>